<?xml version="1.0" encoding="UTF-8" standalone="no"?><!DOCTYPE svg PUBLIC "-//W3C//DTD SVG 1.1//EN" "http://www.w3.org/Graphics/SVG/1.1/DTD/svg11.dtd"><!-- Generated by graphviz version 2.40.1 (20161225.0304)
 --><!-- Title: G Pages: 1 --><svg xmlns="http://www.w3.org/2000/svg" xmlns:xlink="http://www.w3.org/1999/xlink" width="394pt" height="341pt" viewBox="0.00 0.00 393.93 341.15">
<g id="graph0" class="graph" transform="scale(1 1) rotate(0) translate(4 337.1466)">
<title>G</title>
<polygon fill="none" stroke="transparent" points="-4,4 -4,-337.1466 389.9257,-337.1466 389.9257,4 -4,4"/>
<!-- 0 -->
<g id="node1" class="node">
<title>0</title>
<ellipse fill="#ffffff" stroke="#000000" cx="74.6165" cy="-173.1904" rx="32.6206" ry="32.6206"/>
<text text-anchor="middle" x="74.6165" y="-163.5904" font-family="Times,serif" font-size="32.00" fill="#000000">0</text>
</g>
<!-- 2 -->
<g id="node2" class="node">
<title>2</title>
<ellipse fill="#ffffff" stroke="#000000" cx="155.2779" cy="-56.5242" rx="32.6206" ry="32.6206"/>
<text text-anchor="middle" x="155.2779" y="-46.9242" font-family="Times,serif" font-size="32.00" fill="#000000">2</text>
</g>
<!-- 0&#45;&#45;2 -->
<g id="edge1" class="edge">
<title>0--2</title>
<path fill="none" stroke="#000000" d="M93.3246,-146.1316C106.2626,-127.4185 123.4155,-102.6091 136.3919,-83.8404"/>
</g>
<!-- 4 -->
<g id="node7" class="node">
<title>4</title>
<ellipse fill="#ffffff" stroke="#000000" cx="32.8098" cy="-58.1315" rx="32.6206" ry="32.6206"/>
<text text-anchor="middle" x="32.8098" y="-48.5315" font-family="Times,serif" font-size="32.00" fill="#000000">4</text>
</g>
<!-- 0&#45;&#45;4 -->
<g id="edge7" class="edge">
<title>0--4</title>
<path fill="none" stroke="#000000" d="M63.303,-142.0538C57.3542,-125.6818 50.0824,-105.6687 44.1323,-89.293"/>
</g>
<!-- 1 -->
<g id="node3" class="node">
<title>1</title>
<ellipse fill="#ffffff" stroke="#000000" cx="297.3137" cy="-32.8098" rx="32.6206" ry="32.6206"/>
<text text-anchor="middle" x="297.3137" y="-23.2098" font-family="Times,serif" font-size="32.00" fill="#000000">1</text>
</g>
<!-- 2&#45;&#45;1 -->
<g id="edge2" class="edge">
<title>2--1</title>
<path fill="none" stroke="#000000" d="M187.8638,-51.0836C210.9602,-47.2274 241.8172,-42.0755 264.8795,-38.225"/>
</g>
<!-- 6 -->
<g id="node8" class="node">
<title>6</title>
<ellipse fill="#ffffff" stroke="#000000" cx="260.9315" cy="-112.224" rx="32.6206" ry="32.6206"/>
<text text-anchor="middle" x="260.9315" y="-102.624" font-family="Times,serif" font-size="32.00" fill="#000000">6</text>
</g>
<!-- 2&#45;&#45;6 -->
<g id="edge9" class="edge">
<title>2--6</title>
<path fill="none" stroke="#000000" d="M184.4279,-71.8919C199.2092,-79.6845 217.1087,-89.121 231.8766,-96.9065"/>
</g>
<!-- 5 -->
<g id="node4" class="node">
<title>5</title>
<ellipse fill="#ffffff" stroke="#000000" cx="353.1159" cy="-175.8551" rx="32.6206" ry="32.6206"/>
<text text-anchor="middle" x="353.1159" y="-166.2551" font-family="Times,serif" font-size="32.00" fill="#000000">5</text>
</g>
<!-- 1&#45;&#45;5 -->
<g id="edge3" class="edge">
<title>1--5</title>
<path fill="none" stroke="#000000" d="M309.2847,-63.4966C318.6999,-87.6318 331.7547,-121.0969 341.1648,-145.219"/>
</g>
<!-- 7 -->
<g id="node5" class="node">
<title>7</title>
<ellipse fill="#ffffff" stroke="#000000" cx="278.7489" cy="-300.3368" rx="32.6206" ry="32.6206"/>
<text text-anchor="middle" x="278.7489" y="-290.7368" font-family="Times,serif" font-size="32.00" fill="#000000">7</text>
</g>
<!-- 5&#45;&#45;7 -->
<g id="edge4" class="edge">
<title>5--7</title>
<path fill="none" stroke="#000000" d="M336.2409,-204.1019C324.156,-224.3307 307.9426,-251.47 295.8146,-271.7709"/>
</g>
<!-- 3 -->
<g id="node6" class="node">
<title>3</title>
<ellipse fill="#ffffff" stroke="#000000" cx="135.9265" cy="-298.2843" rx="32.6206" ry="32.6206"/>
<text text-anchor="middle" x="135.9265" y="-288.6843" font-family="Times,serif" font-size="32.00" fill="#000000">3</text>
</g>
<!-- 7&#45;&#45;3 -->
<g id="edge5" class="edge">
<title>7--3</title>
<path fill="none" stroke="#000000" d="M245.6236,-299.8608C222.5503,-299.5292 191.906,-299.0888 168.8721,-298.7577"/>
</g>
<!-- 3&#45;&#45;0 -->
<g id="edge6" class="edge">
<title>3--0</title>
<path fill="none" stroke="#000000" d="M121.3968,-268.6388C111.6944,-248.8423 98.979,-222.8986 89.2543,-203.0566"/>
</g>
<!-- 4&#45;&#45;2 -->
<g id="edge8" class="edge">
<title>4--2</title>
<path fill="none" stroke="#000000" d="M65.629,-57.7008C83.2004,-57.4702 104.7829,-57.1869 122.3681,-56.9561"/>
</g>
<!-- 6&#45;&#45;5 -->
<g id="edge10" class="edge">
<title>6--5</title>
<path fill="none" stroke="#000000" d="M288.0913,-130.9713C299.9878,-139.183 313.921,-148.8005 325.8317,-157.0219"/>
</g>
</g>
</svg>