<?xml version="1.0" encoding="UTF-8" standalone="no"?><!DOCTYPE svg PUBLIC "-//W3C//DTD SVG 1.1//EN" "http://www.w3.org/Graphics/SVG/1.1/DTD/svg11.dtd"><!-- Generated by graphviz version 2.40.1 (20161225.0304)
 --><!-- Title: G Pages: 1 --><svg xmlns="http://www.w3.org/2000/svg" xmlns:xlink="http://www.w3.org/1999/xlink" width="326pt" height="277pt" viewBox="0.00 0.00 325.62 276.86">
<g id="graph0" class="graph" transform="scale(1 1) rotate(0) translate(4 272.8585)">
<title>G</title>
<polygon fill="none" stroke="transparent" points="-4,4 -4,-272.8585 321.6195,-272.8585 321.6195,4 -4,4"/>
<!-- 1 -->
<g id="node1" class="node">
<title>1</title>
<ellipse fill="#ffffff" stroke="#000000" cx="200.8098" cy="-236.0488" rx="32.6206" ry="32.6206"/>
<text text-anchor="middle" x="200.8098" y="-226.4488" font-family="Times,serif" font-size="32.00" fill="#000000">1</text>
</g>
<!-- 2 -->
<g id="node2" class="node">
<title>2</title>
<ellipse fill="#ffffff" stroke="#000000" cx="116.8098" cy="-134.4293" rx="32.6206" ry="32.6206"/>
<text text-anchor="middle" x="116.8098" y="-124.8293" font-family="Times,serif" font-size="32.00" fill="#000000">2</text>
</g>
<!-- 1&#45;&#45;2 -->
<g id="edge1" class="edge">
<title>1--2</title>
<path fill="none" stroke="#000000" d="M179.8297,-210.668C167.0008,-195.1482 150.6467,-175.3637 137.8135,-159.8387"/>
</g>
<!-- 3 -->
<g id="node3" class="node">
<title>3</title>
<ellipse fill="#ffffff" stroke="#000000" cx="200.8098" cy="-134.4293" rx="32.6206" ry="32.6206"/>
<text text-anchor="middle" x="200.8098" y="-124.8293" font-family="Times,serif" font-size="32.00" fill="#000000">3</text>
</g>
<!-- 1&#45;&#45;3 -->
<g id="edge2" class="edge">
<title>1--3</title>
<path fill="none" stroke="#000000" d="M200.8098,-203.0558C200.8098,-191.581 200.8098,-178.7181 200.8098,-167.2567"/>
</g>
<!-- 4 -->
<g id="node4" class="node">
<title>4</title>
<ellipse fill="#ffffff" stroke="#000000" cx="284.8098" cy="-134.4293" rx="32.6206" ry="32.6206"/>
<text text-anchor="middle" x="284.8098" y="-124.8293" font-family="Times,serif" font-size="32.00" fill="#000000">4</text>
</g>
<!-- 1&#45;&#45;4 -->
<g id="edge3" class="edge">
<title>1--4</title>
<path fill="none" stroke="#000000" d="M221.7898,-210.668C234.6187,-195.1482 250.9728,-175.3637 263.806,-159.8387"/>
</g>
<!-- 5 -->
<g id="node5" class="node">
<title>5</title>
<ellipse fill="#ffffff" stroke="#000000" cx="32.8098" cy="-32.8098" rx="32.6206" ry="32.6206"/>
<text text-anchor="middle" x="32.8098" y="-23.2098" font-family="Times,serif" font-size="32.00" fill="#000000">5</text>
</g>
<!-- 2&#45;&#45;5 -->
<g id="edge4" class="edge">
<title>2--5</title>
<path fill="none" stroke="#000000" d="M95.8297,-109.0485C83.0008,-93.5287 66.6467,-73.7442 53.8135,-58.2191"/>
</g>
<!-- 6 -->
<g id="node6" class="node">
<title>6</title>
<ellipse fill="#ffffff" stroke="#000000" cx="116.8098" cy="-32.8098" rx="32.6206" ry="32.6206"/>
<text text-anchor="middle" x="116.8098" y="-23.2098" font-family="Times,serif" font-size="32.00" fill="#000000">6</text>
</g>
<!-- 2&#45;&#45;6 -->
<g id="edge5" class="edge">
<title>2--6</title>
<path fill="none" stroke="#000000" d="M116.8098,-101.4363C116.8098,-89.9615 116.8098,-77.0985 116.8098,-65.6372"/>
</g>
<!-- 7 -->
<g id="node7" class="node">
<title>7</title>
<ellipse fill="#ffffff" stroke="#000000" cx="200.8098" cy="-32.8098" rx="32.6206" ry="32.6206"/>
<text text-anchor="middle" x="200.8098" y="-23.2098" font-family="Times,serif" font-size="32.00" fill="#000000">7</text>
</g>
<!-- 3&#45;&#45;7 -->
<g id="edge6" class="edge">
<title>3--7</title>
<path fill="none" stroke="#000000" d="M200.8098,-101.4363C200.8098,-89.9615 200.8098,-77.0985 200.8098,-65.6372"/>
</g>
</g>
</svg>