<?xml version="1.0" encoding="UTF-8" standalone="no"?><!DOCTYPE svg PUBLIC "-//W3C//DTD SVG 1.1//EN" "http://www.w3.org/Graphics/SVG/1.1/DTD/svg11.dtd"><!-- Generated by graphviz version 2.40.1 (20161225.0304)
 --><!-- Title: G Pages: 1 --><svg xmlns="http://www.w3.org/2000/svg" xmlns:xlink="http://www.w3.org/1999/xlink" width="1152pt" height="748pt" viewBox="0.00 0.00 1152.00 747.63">
<g id="graph0" class="graph" transform="scale(1.2704 1.2704) rotate(0) translate(4 584.5053)">
<title>G</title>
<polygon fill="none" stroke="transparent" points="-4,4 -4,-584.5053 902.8098,-584.5053 902.8098,4 -4,4"/>
<!-- 1 -->
<g id="node1" class="node">
<title>1</title>
<ellipse fill="#ffffff" stroke="#000000" cx="103.8098" cy="-547.6955" rx="32.6206" ry="32.6206"/>
<text text-anchor="middle" x="103.8098" y="-538.0955" font-family="Times,serif" font-size="32.00" fill="#000000">1</text>
</g>
<!-- 2 -->
<g id="node2" class="node">
<title>2</title>
<ellipse fill="#ffffff" stroke="#000000" cx="174.8098" cy="-446.076" rx="32.6206" ry="32.6206"/>
<text text-anchor="middle" x="174.8098" y="-436.476" font-family="Times,serif" font-size="32.00" fill="#000000">2</text>
</g>
<!-- 1&#45;&#45;2 -->
<g id="edge1" class="edge">
<title>1--2</title>
<path fill="none" stroke="#000000" d="M122.65,-520.7302C132.9206,-506.0303 145.5972,-487.8869 155.8814,-473.1674"/>
</g>
<!-- 3 -->
<g id="node3" class="node">
<title>3</title>
<ellipse fill="#ffffff" stroke="#000000" cx="32.8098" cy="-344.4565" rx="32.6206" ry="32.6206"/>
<text text-anchor="middle" x="32.8098" y="-334.8565" font-family="Times,serif" font-size="32.00" fill="#000000">3</text>
</g>
<!-- 1&#45;&#45;3 -->
<g id="edge2" class="edge">
<title>1--3</title>
<path fill="none" stroke="#000000" d="M92.8716,-516.3848C79.4905,-478.0811 56.9774,-413.6368 43.6438,-375.4693"/>
</g>
<!-- 2&#45;&#45;3 -->
<g id="edge3" class="edge">
<title>2--3</title>
<path fill="none" stroke="#000000" d="M148.1006,-426.9622C122.874,-408.9092 85.2269,-381.9678 59.8819,-363.8302"/>
</g>
<!-- 4 -->
<g id="node4" class="node">
<title>4</title>
<ellipse fill="#ffffff" stroke="#000000" cx="174.8098" cy="-241.7056" rx="32.6206" ry="32.6206"/>
<text text-anchor="middle" x="174.8098" y="-232.1056" font-family="Times,serif" font-size="32.00" fill="#000000">4</text>
</g>
<!-- 2&#45;&#45;4 -->
<g id="edge4" class="edge">
<title>2--4</title>
<path fill="none" stroke="#000000" d="M174.8098,-413.2404C174.8098,-375.2155 174.8098,-312.9326 174.8098,-274.7986"/>
</g>
<!-- 3&#45;&#45;4 -->
<g id="edge5" class="edge">
<title>3--4</title>
<path fill="none" stroke="#000000" d="M59.5189,-325.1299C84.9062,-306.7596 122.8727,-279.2872 148.2204,-260.9456"/>
</g>
<!-- 5 -->
<g id="node5" class="node">
<title>5</title>
<ellipse fill="#ffffff" stroke="#000000" cx="535.8098" cy="-547.6955" rx="32.6206" ry="32.6206"/>
<text text-anchor="middle" x="535.8098" y="-538.0955" font-family="Times,serif" font-size="32.00" fill="#000000">5</text>
</g>
<!-- 5&#45;&#45;2 -->
<g id="edge6" class="edge">
<title>5--2</title>
<path fill="none" stroke="#000000" d="M503.528,-540.5315C452.5994,-528.9917 350.668,-504.9301 265.8098,-478.8858 245.5805,-472.6771 223.2198,-464.632 205.7263,-458.0622"/>
</g>
<!-- 5&#45;&#45;4 -->
<g id="edge7" class="edge">
<title>5--4</title>
<path fill="none" stroke="#000000" d="M504.7899,-536.2687C475.1543,-524.5012 430.0548,-504.3168 395.8098,-478.8858 350.8505,-445.4982 242.2466,-320.6986 196.1129,-266.779"/>
</g>
<!-- 6 -->
<g id="node6" class="node">
<title>6</title>
<ellipse fill="#ffffff" stroke="#000000" cx="464.8098" cy="-446.076" rx="32.6206" ry="32.6206"/>
<text text-anchor="middle" x="464.8098" y="-436.476" font-family="Times,serif" font-size="32.00" fill="#000000">6</text>
</g>
<!-- 5&#45;&#45;6 -->
<g id="edge8" class="edge">
<title>5--6</title>
<path fill="none" stroke="#000000" d="M516.9695,-520.7302C506.6989,-506.0303 494.0223,-487.8869 483.7381,-473.1674"/>
</g>
<!-- 7 -->
<g id="node7" class="node">
<title>7</title>
<ellipse fill="#ffffff" stroke="#000000" cx="608.8098" cy="-344.4565" rx="32.6206" ry="32.6206"/>
<text text-anchor="middle" x="608.8098" y="-334.8565" font-family="Times,serif" font-size="32.00" fill="#000000">7</text>
</g>
<!-- 5&#45;&#45;7 -->
<g id="edge9" class="edge">
<title>5--7</title>
<path fill="none" stroke="#000000" d="M547.056,-516.3848C560.8141,-478.0811 583.9614,-413.6368 597.6705,-375.4693"/>
</g>
<!-- 8 -->
<g id="node8" class="node">
<title>8</title>
<ellipse fill="#ffffff" stroke="#000000" cx="752.8098" cy="-344.4565" rx="32.6206" ry="32.6206"/>
<text text-anchor="middle" x="752.8098" y="-334.8565" font-family="Times,serif" font-size="32.00" fill="#000000">8</text>
</g>
<!-- 5&#45;&#45;8 -->
<g id="edge10" class="edge">
<title>5--8</title>
<path fill="none" stroke="#000000" d="M563.3796,-529.0393C582.2004,-515.8394 607.3349,-497.2812 627.8098,-478.8858 667.0439,-443.6363 707.7923,-397.7796 731.6994,-369.7628"/>
</g>
<!-- 12 -->
<g id="node9" class="node">
<title>12</title>
<ellipse fill="#ffffff" stroke="#000000" cx="752.8098" cy="-33.9411" rx="33.8824" ry="33.8824"/>
<text text-anchor="middle" x="752.8098" y="-24.3411" font-family="Times,serif" font-size="32.00" fill="#000000">12</text>
</g>
<!-- 5&#45;&#45;12 -->
<g id="edge11" class="edge">
<title>5--12</title>
<path fill="none" stroke="#000000" d="M568.6638,-544.8545C658.0196,-535.1555 898.8098,-495.0482 898.8098,-344.4565 898.8098,-344.4565 898.8098,-344.4565 898.8098,-241.7056 898.8098,-160.1472 822.5639,-87.9649 780.2712,-54.1997"/>
</g>
<!-- 6&#45;&#45;7 -->
<g id="edge12" class="edge">
<title>6--7</title>
<path fill="none" stroke="#000000" d="M491.8951,-426.9622C517.64,-408.7942 556.1412,-381.6242 581.8459,-363.4847"/>
</g>
<!-- 9 -->
<g id="node10" class="node">
<title>9</title>
<ellipse fill="#ffffff" stroke="#000000" cx="470.8098" cy="-241.7056" rx="32.6206" ry="32.6206"/>
<text text-anchor="middle" x="470.8098" y="-232.1056" font-family="Times,serif" font-size="32.00" fill="#000000">9</text>
</g>
<!-- 6&#45;&#45;9 -->
<g id="edge13" class="edge">
<title>6--9</title>
<path fill="none" stroke="#000000" d="M465.7738,-413.2404C466.8901,-375.2155 468.7186,-312.9326 469.8382,-274.7986"/>
</g>
<!-- 7&#45;&#45;9 -->
<g id="edge14" class="edge">
<title>7--9</title>
<path fill="none" stroke="#000000" d="M582.202,-324.6451C557.7653,-306.4503 521.7467,-279.6318 497.3359,-261.4562"/>
</g>
<!-- 11 -->
<g id="node11" class="node">
<title>11</title>
<ellipse fill="#ffffff" stroke="#000000" cx="609.8098" cy="-241.7056" rx="33.8824" ry="33.8824"/>
<text text-anchor="middle" x="609.8098" y="-232.1056" font-family="Times,serif" font-size="32.00" fill="#000000">11</text>
</g>
<!-- 7&#45;&#45;11 -->
<g id="edge15" class="edge">
<title>7--11</title>
<path fill="none" stroke="#000000" d="M609.1317,-311.3799C609.2424,-299.9986 609.3666,-287.239 609.4781,-275.7797"/>
</g>
<!-- 8&#45;&#45;12 -->
<g id="edge17" class="edge">
<title>8--12</title>
<path fill="none" stroke="#000000" d="M752.8098,-311.5199C752.8098,-252.2081 752.8098,-128.0351 752.8098,-67.9507"/>
</g>
<!-- 8&#45;&#45;11 -->
<g id="edge16" class="edge">
<title>8--11</title>
<path fill="none" stroke="#000000" d="M725.9125,-325.1299C700.67,-306.9922 663.0785,-279.9812 637.5618,-261.6465"/>
</g>
<!-- 10 -->
<g id="node12" class="node">
<title>10</title>
<ellipse fill="#ffffff" stroke="#000000" cx="540.8098" cy="-137.8234" rx="33.8824" ry="33.8824"/>
<text text-anchor="middle" x="540.8098" y="-128.2234" font-family="Times,serif" font-size="32.00" fill="#000000">10</text>
</g>
<!-- 9&#45;&#45;10 -->
<g id="edge18" class="edge">
<title>9--10</title>
<path fill="none" stroke="#000000" d="M489.2014,-214.4118C499.2473,-199.5034 511.6695,-181.0684 521.8091,-166.021"/>
</g>
<!-- 10&#45;&#45;12 -->
<g id="edge19" class="edge">
<title>10--12</title>
<path fill="none" stroke="#000000" d="M571.6364,-122.718C611.9449,-102.9664 682.1336,-68.5732 722.2899,-48.8962"/>
</g>
</g>
</svg>