<?xml version="1.0" encoding="UTF-8" standalone="no"?><!DOCTYPE svg PUBLIC "-//W3C//DTD SVG 1.1//EN" "http://www.w3.org/Graphics/SVG/1.1/DTD/svg11.dtd"><!-- Generated by graphviz version 2.40.1 (20161225.0304)
 --><!-- Title: G Pages: 1 --><svg xmlns="http://www.w3.org/2000/svg" xmlns:xlink="http://www.w3.org/1999/xlink" width="786pt" height="1152pt" viewBox="0.00 0.00 786.09 1152.00">
<g id="graph0" class="graph" transform="scale(3.1922 3.1922) rotate(0) translate(4 356.879)">
<title>G</title>
<polygon fill="none" stroke="transparent" points="-4,4 -4,-356.879 242.2533,-356.879 242.2533,4 -4,4"/>
<!-- 1 -->
<g id="node1" class="node">
<title>1</title>
<ellipse fill="#ffffff" stroke="#000000" cx="167.7785" cy="-174.7428" rx="32.6206" ry="32.6206"/>
<text text-anchor="middle" x="167.7785" y="-165.1428" font-family="Times,serif" font-size="32.00" fill="#000000">1</text>
</g>
<!-- 2 -->
<g id="node2" class="node">
<title>2</title>
<ellipse fill="#ffffff" stroke="#000000" cx="205.4436" cy="-32.8098" rx="32.6206" ry="32.6206"/>
<text text-anchor="middle" x="205.4436" y="-23.2098" font-family="Times,serif" font-size="32.00" fill="#000000">2</text>
</g>
<!-- 1&#45;&#45;2 -->
<g id="edge1" class="edge">
<title>1--2</title>
<path fill="none" stroke="#000000" d="M176.2312,-142.8902C182.4344,-119.515 190.8225,-87.9062 197.019,-64.556"/>
</g>
<!-- 3 -->
<g id="node3" class="node">
<title>3</title>
<ellipse fill="#ffffff" stroke="#000000" cx="63.3753" cy="-75.531" rx="32.6206" ry="32.6206"/>
<text text-anchor="middle" x="63.3753" y="-65.931" font-family="Times,serif" font-size="32.00" fill="#000000">3</text>
</g>
<!-- 1&#45;&#45;3 -->
<g id="edge2" class="edge">
<title>1--3</title>
<path fill="none" stroke="#000000" d="M143.8263,-151.9816C126.8493,-135.8488 104.168,-114.2952 87.2161,-98.1863"/>
</g>
<!-- 4 -->
<g id="node4" class="node">
<title>4</title>
<ellipse fill="#ffffff" stroke="#000000" cx="32.8098" cy="-224.9855" rx="32.6206" ry="32.6206"/>
<text text-anchor="middle" x="32.8098" y="-215.3855" font-family="Times,serif" font-size="32.00" fill="#000000">4</text>
</g>
<!-- 1&#45;&#45;4 -->
<g id="edge3" class="edge">
<title>1--4</title>
<path fill="none" stroke="#000000" d="M136.8139,-186.2695C114.8667,-194.4394 85.545,-205.3545 63.6302,-213.5124"/>
</g>
<!-- 5 -->
<g id="node5" class="node">
<title>5</title>
<ellipse fill="#ffffff" stroke="#000000" cx="146.6747" cy="-320.0692" rx="32.6206" ry="32.6206"/>
<text text-anchor="middle" x="146.6747" y="-310.4692" font-family="Times,serif" font-size="32.00" fill="#000000">5</text>
</g>
<!-- 1&#45;&#45;5 -->
<g id="edge4" class="edge">
<title>1--5</title>
<path fill="none" stroke="#000000" d="M163.0424,-207.3569C159.5667,-231.291 154.8669,-263.6555 151.395,-287.564"/>
</g>
<!-- 2&#45;&#45;3 -->
<g id="edge5" class="edge">
<title>2--3</title>
<path fill="none" stroke="#000000" d="M173.914,-42.291C150.3709,-49.3706 118.3386,-59.003 94.8167,-66.0763"/>
</g>
<!-- 3&#45;&#45;4 -->
<g id="edge6" class="edge">
<title>3--4</title>
<path fill="none" stroke="#000000" d="M56.7431,-107.9604C51.6162,-133.0289 44.5527,-167.5668 39.4291,-192.6194"/>
</g>
<!-- 4&#45;&#45;5 -->
<g id="edge7" class="edge">
<title>4--5</title>
<path fill="none" stroke="#000000" d="M58.0801,-246.0876C76.9494,-261.8446 102.6227,-283.2832 121.475,-299.026"/>
</g>
</g>
</svg>