<?xml version="1.0" encoding="UTF-8" standalone="no"?><!DOCTYPE svg PUBLIC "-//W3C//DTD SVG 1.1//EN" "http://www.w3.org/Graphics/SVG/1.1/DTD/svg11.dtd"><!-- Generated by graphviz version 2.40.1 (20161225.0304)
 --><!-- Title: G Pages: 1 --><svg xmlns="http://www.w3.org/2000/svg" xmlns:xlink="http://www.w3.org/1999/xlink" width="1110pt" height="1152pt" viewBox="0.00 0.00 1110.34 1152.00">
<g id="graph0" class="graph" transform="scale(4.0862 4.0862) rotate(0) translate(4 277.9278)">
<title>G</title>
<polygon fill="none" stroke="transparent" points="-4,4 -4,-277.9278 267.7324,-277.9278 267.7324,4 -4,4"/>
<!-- 1 -->
<g id="node1" class="node">
<title>1</title>
<ellipse fill="#ffffff" stroke="#000000" cx="155.2503" cy="-32.8098" rx="32.6206" ry="32.6206"/>
<text text-anchor="middle" x="155.2503" y="-23.2098" font-family="Times,serif" font-size="32.00" fill="#000000">1</text>
</g>
<!-- 2 -->
<g id="node2" class="node">
<title>2</title>
<ellipse fill="#ffffff" stroke="#000000" cx="32.8098" cy="-72.5931" rx="32.6206" ry="32.6206"/>
<text text-anchor="middle" x="32.8098" y="-62.9931" font-family="Times,serif" font-size="32.00" fill="#000000">2</text>
</g>
<!-- 1&#45;&#45;2 -->
<g id="edge1" class="edge">
<title>1--2</title>
<path fill="none" stroke="#000000" d="M124.0366,-42.9517C105.7568,-48.8912 82.7352,-56.3713 64.3922,-62.3313"/>
</g>
<!-- 5 -->
<g id="node3" class="node">
<title>5</title>
<ellipse fill="#ffffff" stroke="#000000" cx="230.9227" cy="-136.9639" rx="32.6206" ry="32.6206"/>
<text text-anchor="middle" x="230.9227" y="-127.3639" font-family="Times,serif" font-size="32.00" fill="#000000">5</text>
</g>
<!-- 1&#45;&#45;5 -->
<g id="edge2" class="edge">
<title>1--5</title>
<path fill="none" stroke="#000000" d="M174.5414,-59.3617C185.8389,-74.9114 200.0671,-94.4948 211.4036,-110.0982"/>
</g>
<!-- 3 -->
<g id="node4" class="node">
<title>3</title>
<ellipse fill="#ffffff" stroke="#000000" cx="32.8098" cy="-201.3347" rx="32.6206" ry="32.6206"/>
<text text-anchor="middle" x="32.8098" y="-191.7347" font-family="Times,serif" font-size="32.00" fill="#000000">3</text>
</g>
<!-- 2&#45;&#45;3 -->
<g id="edge3" class="edge">
<title>2--3</title>
<path fill="none" stroke="#000000" d="M32.8098,-105.4131C32.8098,-124.6336 32.8098,-148.84 32.8098,-168.1269"/>
</g>
<!-- 4 -->
<g id="node5" class="node">
<title>4</title>
<ellipse fill="#ffffff" stroke="#000000" cx="155.2503" cy="-241.118" rx="32.6206" ry="32.6206"/>
<text text-anchor="middle" x="155.2503" y="-231.518" font-family="Times,serif" font-size="32.00" fill="#000000">4</text>
</g>
<!-- 3&#45;&#45;4 -->
<g id="edge4" class="edge">
<title>3--4</title>
<path fill="none" stroke="#000000" d="M64.0235,-211.4766C82.3032,-217.4161 105.3248,-224.8962 123.6678,-230.8562"/>
</g>
<!-- 4&#45;&#45;5 -->
<g id="edge5" class="edge">
<title>4--5</title>
<path fill="none" stroke="#000000" d="M174.5414,-214.566C185.8389,-199.0164 200.0671,-179.433 211.4036,-163.8295"/>
</g>
</g>
</svg>