<?xml version="1.0" encoding="UTF-8" standalone="no"?><!DOCTYPE svg PUBLIC "-//W3C//DTD SVG 1.1//EN" "http://www.w3.org/Graphics/SVG/1.1/DTD/svg11.dtd"><!-- Generated by graphviz version 2.40.1 (20161225.0304)
 --><!-- Title: G Pages: 1 --><svg xmlns="http://www.w3.org/2000/svg" xmlns:xlink="http://www.w3.org/1999/xlink" width="1130pt" height="1152pt" viewBox="0.00 0.00 1130.20 1152.00">
<g id="graph0" class="graph" transform="scale(4.161 4.161) rotate(0) translate(4 272.8585)">
<title>G</title>
<polygon fill="none" stroke="transparent" points="-4,4 -4,-272.8585 267.6195,-272.8585 267.6195,4 -4,4"/>
<!-- 1 -->
<g id="node1" class="node">
<title>1</title>
<ellipse fill="#ffffff" stroke="#000000" cx="158.8098" cy="-236.0488" rx="32.6206" ry="32.6206"/>
<text text-anchor="middle" x="158.8098" y="-226.4488" font-family="Times,serif" font-size="32.00" fill="#000000">1</text>
</g>
<!-- 2 -->
<g id="node2" class="node">
<title>2</title>
<ellipse fill="#ffffff" stroke="#000000" cx="32.8098" cy="-134.4293" rx="32.6206" ry="32.6206"/>
<text text-anchor="middle" x="32.8098" y="-124.8293" font-family="Times,serif" font-size="32.00" fill="#000000">2</text>
</g>
<!-- 1&#45;&#45;2 -->
<g id="edge1" class="edge">
<title>1--2</title>
<path fill="none" stroke="#000000" d="M133.0077,-215.2393C111.2643,-197.7032 80.3109,-172.7391 58.5773,-155.2109"/>
</g>
<!-- 3 -->
<g id="node3" class="node">
<title>3</title>
<ellipse fill="#ffffff" stroke="#000000" cx="116.8098" cy="-134.4293" rx="32.6206" ry="32.6206"/>
<text text-anchor="middle" x="116.8098" y="-124.8293" font-family="Times,serif" font-size="32.00" fill="#000000">3</text>
</g>
<!-- 1&#45;&#45;3 -->
<g id="edge2" class="edge">
<title>1--3</title>
<path fill="none" stroke="#000000" d="M146.2084,-205.5596C140.8925,-192.6979 134.7171,-177.7563 129.4022,-164.8969"/>
</g>
<!-- 4 -->
<g id="node4" class="node">
<title>4</title>
<ellipse fill="#ffffff" stroke="#000000" cx="200.8098" cy="-134.4293" rx="32.6206" ry="32.6206"/>
<text text-anchor="middle" x="200.8098" y="-124.8293" font-family="Times,serif" font-size="32.00" fill="#000000">4</text>
</g>
<!-- 1&#45;&#45;4 -->
<g id="edge3" class="edge">
<title>1--4</title>
<path fill="none" stroke="#000000" d="M171.4111,-205.5596C176.727,-192.6979 182.9024,-177.7563 188.2173,-164.8969"/>
</g>
<!-- 5 -->
<g id="node5" class="node">
<title>5</title>
<ellipse fill="#ffffff" stroke="#000000" cx="230.8098" cy="-32.8098" rx="32.6206" ry="32.6206"/>
<text text-anchor="middle" x="230.8098" y="-23.2098" font-family="Times,serif" font-size="32.00" fill="#000000">5</text>
</g>
<!-- 1&#45;&#45;5 -->
<g id="edge4" class="edge">
<title>1--5</title>
<path fill="none" stroke="#000000" d="M188.3818,-220.9084C207.7947,-209.1728 231.5955,-190.9219 242.8098,-167.239 258.3527,-134.4146 250.675,-92.0578 242.1975,-63.7448"/>
</g>
<!-- 4&#45;&#45;5 -->
<g id="edge5" class="edge">
<title>4--5</title>
<path fill="none" stroke="#000000" d="M210.1375,-102.8333C213.7496,-90.598 217.8763,-76.6196 221.4878,-64.3862"/>
</g>
</g>
</svg>