<?xml version="1.0" encoding="UTF-8" standalone="no"?><!DOCTYPE svg PUBLIC "-//W3C//DTD SVG 1.1//EN" "http://www.w3.org/Graphics/SVG/1.1/DTD/svg11.dtd"><!-- Generated by graphviz version 2.40.1 (20161225.0304)
 --><!-- Title: G Pages: 1 --><svg xmlns="http://www.w3.org/2000/svg" xmlns:xlink="http://www.w3.org/1999/xlink" width="1152pt" height="836pt" viewBox="0.00 0.00 1152.00 835.51">
<g id="graph0" class="graph" transform="scale(4.7678 4.7678) rotate(0) translate(4 171.239)">
<title>G</title>
<polygon fill="none" stroke="transparent" points="-4,4 -4,-171.239 237.6195,-171.239 237.6195,4 -4,4"/>
<!-- 1 -->
<g id="node1" class="node">
<title>1</title>
<ellipse fill="#ffffff" stroke="#000000" cx="32.8098" cy="-134.4293" rx="32.6206" ry="32.6206"/>
<text text-anchor="middle" x="32.8098" y="-124.8293" font-family="Times,serif" font-size="32.00" fill="#000000">1</text>
</g>
<!-- 2 -->
<g id="node2" class="node">
<title>2</title>
<ellipse fill="#ffffff" stroke="#000000" cx="116.8098" cy="-134.4293" rx="32.6206" ry="32.6206"/>
<text text-anchor="middle" x="116.8098" y="-124.8293" font-family="Times,serif" font-size="32.00" fill="#000000">2</text>
</g>
<!-- 1&#45;&#45;2 -->
<g id="edge1" class="edge">
<title>1--2</title>
<path fill="none" stroke="#000000" d="M65.6223,-134.4293C71.6208,-134.4293 77.6193,-134.4293 83.6179,-134.4293"/>
</g>
<!-- 3 -->
<g id="node3" class="node">
<title>3</title>
<ellipse fill="#ffffff" stroke="#000000" cx="74.8098" cy="-32.8098" rx="32.6206" ry="32.6206"/>
<text text-anchor="middle" x="74.8098" y="-23.2098" font-family="Times,serif" font-size="32.00" fill="#000000">3</text>
</g>
<!-- 1&#45;&#45;3 -->
<g id="edge2" class="edge">
<title>1--3</title>
<path fill="none" stroke="#000000" d="M45.4111,-103.9401C50.727,-91.0784 56.9024,-76.1368 62.2173,-63.2774"/>
</g>
<!-- 2&#45;&#45;3 -->
<g id="edge3" class="edge">
<title>2--3</title>
<path fill="none" stroke="#000000" d="M104.2084,-103.9401C98.8925,-91.0784 92.7171,-76.1368 87.4022,-63.2774"/>
</g>
<!-- 4 -->
<g id="node4" class="node">
<title>4</title>
<ellipse fill="#ffffff" stroke="#000000" cx="158.8098" cy="-32.8098" rx="32.6206" ry="32.6206"/>
<text text-anchor="middle" x="158.8098" y="-23.2098" font-family="Times,serif" font-size="32.00" fill="#000000">4</text>
</g>
<!-- 3&#45;&#45;4 -->
<g id="edge4" class="edge">
<title>3--4</title>
<path fill="none" stroke="#000000" d="M107.6223,-32.8098C113.6208,-32.8098 119.6193,-32.8098 125.6179,-32.8098"/>
</g>
<!-- 5 -->
<g id="node5" class="node">
<title>5</title>
<ellipse fill="#ffffff" stroke="#000000" cx="200.8098" cy="-134.4293" rx="32.6206" ry="32.6206"/>
<text text-anchor="middle" x="200.8098" y="-124.8293" font-family="Times,serif" font-size="32.00" fill="#000000">5</text>
</g>
</g>
</svg>